/* XPM */
static const char *downarrow_xpm[] = {
/* columns rows colors chars-per-pixel */
"20 10 2 1",
"  c #000000",
". c None",
/* pixels */
"....................",
"....................",
"....  ........  ....",
"..... .  ..  . .....",
"...... ...... ......",
"....... .... .......",
"........ .. ........",
".........  .........",
"....................",
"...................."
};
