/* XPM */
static const char *SoDaLogo[] = {
/* columns rows colors chars-per-pixel */
"64 64 226 2 ",
"   c black",
".  c #0B090A",
"X  c #0F0D0D",
"o  c #151313",
"O  c #1B1819",
"+  c #3D3637",
"@  c #3E3738",
"#  c #4A4243",
"$  c #554D4D",
"%  c #564E4E",
"&  c #5E5555",
"*  c #6C6262",
"=  c #786D6D",
"-  c #7C7172",
";  c #CE0000",
":  c #CF0000",
">  c #D00000",
",  c #D20000",
"<  c #D40000",
"1  c #D50000",
"2  c #D70000",
"3  c #D80000",
"4  c #DA0000",
"5  c #DC0000",
"6  c #DF0000",
"7  c #DC1314",
"8  c #DA1A1B",
"9  c #E40000",
"0  c #E50000",
"q  c #E70000",
"w  c #EC0000",
"e  c #EE0000",
"r  c #EF0000",
"t  c #E30A0A",
"y  c #EA0C0C",
"u  c #F20000",
"i  c #F30000",
"p  c #F70000",
"a  c #F80000",
"s  c #FA0000",
"d  c #FB0000",
"f  c #FD0000",
"g  c #FE0000",
"h  c red",
"j  c #FF0101",
"k  c #FF0202",
"l  c #FF0303",
"z  c #FF0606",
"x  c #FF0707",
"c  c #FF0808",
"v  c #FF0B0B",
"b  c #FF0C0C",
"n  c #FF0E0E",
"m  c #FF0F0F",
"M  c #FF1313",
"N  c #FF1414",
"B  c #FF1616",
"V  c #FF1717",
"C  c #FF1818",
"Z  c #FF1919",
"A  c #FF1B1B",
"S  c #FF1C1C",
"D  c #FF1D1D",
"F  c #FF1E1E",
"G  c #DB2222",
"H  c #D32728",
"J  c #C03737",
"K  c #CF3838",
"L  c #D23131",
"P  c #FF2121",
"I  c #FF2727",
"U  c #FF2828",
"Y  c #FF2929",
"T  c #FF2A2A",
"R  c #FF2D2D",
"E  c #FF2F2F",
"W  c #FF3030",
"Q  c #FF3131",
"!  c #FF3232",
"~  c #FF3333",
"^  c #FF3535",
"/  c #FF3636",
"(  c #FF3737",
")  c #FF3939",
"_  c #FF3F3F",
"`  c #BA5E5E",
"'  c #857878",
"]  c #BE6E6E",
"[  c #BF6E6F",
"{  c #BE7374",
"}  c #BD7676",
"|  c #BC7778",
" . c #B8797A",
".. c #BD7B7B",
"X. c #BC7B7C",
"o. c #CC4445",
"O. c #CF4748",
"+. c #CA4A4B",
"@. c #C55555",
"#. c #C75555",
"$. c #C85152",
"%. c #C55A5A",
"&. c #C55D5D",
"*. c #FF4141",
"=. c #FF4343",
"-. c #FF4444",
";. c #FF4545",
":. c #FF4646",
">. c #FF4848",
",. c #FF4949",
"<. c #FF4E4E",
"1. c #FF4F4F",
"2. c #FF5454",
"3. c #FF5656",
"4. c #FF5757",
"5. c #FF5959",
"6. c #FF5A5A",
"7. c #C36363",
"8. c #C26566",
"9. c #C36969",
"0. c #C06C6C",
"q. c #FF6161",
"w. c #FF6262",
"e. c #FF6363",
"r. c #FF6666",
"t. c #FF6767",
"y. c #FF6A6A",
"u. c #FF6C6C",
"i. c #FF6F6F",
"p. c #FF7070",
"a. c #FF7474",
"s. c #FF7575",
"d. c #FF7676",
"f. c #FF7777",
"g. c #FF7878",
"h. c #FF7A7A",
"j. c #FF7C7C",
"k. c #FF7D7D",
"l. c #FF7F7F",
"z. c #8D7F80",
"x. c #918181",
"c. c #988A8A",
"v. c #998A8A",
"b. c #9A8A8A",
"n. c #998A8C",
"m. c #9B8C8C",
"M. c #9D8E8E",
"N. c #9D8E8F",
"B. c #9F9090",
"V. c #B78D8D",
"C. c #A39496",
"Z. c #A69596",
"A. c #A69798",
"S. c #AA9A9A",
"D. c #AC9C9C",
"F. c #AD9E9E",
"G. c #B49797",
"H. c #B89A9A",
"J. c #B0A0A0",
"K. c #B2A2A2",
"L. c #B6A7A7",
"P. c #B7A7A7",
"I. c #BAAAAA",
"U. c gray69",
"Y. c gray70",
"T. c gray72",
"R. c #BBBBBB",
"E. c gray75",
"W. c #FF8181",
"Q. c #FF8383",
"!. c #FF8686",
"~. c #FF8A8A",
"^. c #FF8B8B",
"/. c #FF8C8C",
"(. c #FF8F8F",
"). c #FF9090",
"_. c #FF9494",
"`. c #FF9595",
"'. c #FF9898",
"]. c #FF9C9C",
"[. c #C3ABAB",
"{. c #C2ADAD",
"}. c #C0AFAF",
"|. c #C1B0B0",
" X c #C1B1B1",
".X c #C4B3B3",
"XX c #C5B4B4",
"oX c #C7B6B6",
"OX c #C8B7B7",
"+X c #FFA1A1",
"@X c #FFA3A3",
"#X c #FFA6A6",
"$X c #FFA7A7",
"%X c #FFAAAA",
"&X c #FFADAD",
"*X c #FFAFAF",
"=X c #FFB0B0",
"-X c #FFBDBD",
";X c #C1C1C1",
":X c #D2D2D2",
">X c gray83",
",X c gainsboro",
"<X c #FFC3C3",
"1X c #FFCDCD",
"2X c #FFCECE",
"3X c #FFCFCF",
"4X c #FFD3D3",
"5X c #FFD5D5",
"6X c #FFD6D6",
"7X c #FFD8D8",
"8X c #FFDADA",
"9X c #FFDBDB",
"0X c #FFDEDE",
"qX c #FFDFDF",
"wX c #FFE0E0",
"eX c #FFE2E2",
"rX c #FFE6E6",
"tX c #FFEFEF",
"yX c #FFF0F0",
"uX c #FFF2F2",
"iX c #FFF9F9",
"pX c #FFFCFC",
"aX c #FFFDFD",
"sX c #FFFEFE",
"dX c gray100",
"fX c None",
/* pixels */
"fXfXfXfXfXfXfXfXfXfXfXfXfXfXfXfXfXfXfXfXfXfXfXfXfXfXfXfXfXfXfXfXfXfXfXfXfXfXfXfXfXfXfXfXfXfXfXfXfXfXfXfXfXfXfXfXfXfXfXfXfXfXfXfX",
"fXfXfXfXfXfXfXfXfXfXfXfXfXfXfXfXfXfXfXfXfXfXfXfXfXfXfXfXfXfXfXfXfXfXfXfXfXfXfXfXfXfXfXfXfXfXfXfXfXfXfXfXfXfXfXfXfXfXfXfXfXfXfXfX",
"fXfXfXfXfXfXfXfXfXfXfXfXfXfXfXfXfXfXfXfXfXfXfXfXfXfXfXfXfXfXfXfXfXfXfXfXfXfXfXfXfXfXfXfX;XfXfXfXfXfXfXfXfXfXfXfXfXfXfXfXfXfXfXfX",
"fXfXfXfXfXfXfXfXfXfXfXfXfXfXfXfXfXfXfXfXfXfXfXfXfXfXfXfXfXfXfXfXfXfXfXfXfXfXfXfX;XfXfXfXfXfXfXfXfXfXfXfXfXfXfXfXfXfXfXfXfXfXfXfX",
"fXfXfXfXfXfXfXfXfXfXfXfXfXfXfXfXfXfXfXfXfXfXfXfXfXfXfXfXfXfXfXfXfXfXfXfXfXfXfXfXfXfXfXfXfXfXfXfXfXfXfXfXfXfXfXfXfXfXfXfXfXfXfXfX",
"fXfXfXfXfXfXfXfXfXfXfXfXfXfXfXfXfXfXfXfXfXfXfXfXfXfXfXfXfXfXfXfXfXfXfXfXfXfXfXfXfXfXR.R.fXfX,XfXfXfXfXfXfXfXfXfXfXfXfXfXfXfXfXfX",
"fXfXfXfXfXfXfXfXfXfXfXfXfXfXfXfXfXfXfXfXfXfXfXfXfXfXfXfXfXfXfXfXfXfXfXfXfXfXfXfXfXfXfXfXfXfXfXfXfXfXfXfXfXfXfXfXfXfXfXfXfXfXfXfX",
"fXfXfXfXfXfXfXfXfXfXfXfXfXfXfXfXfXfXfXfXfXfXfXfXfXfXfXfXfXfXfXfXfXfXfXfXfXfXfXfXfXfXfXfXfXfXfXfXfXfXfXfXfXfXfXfXfXfXfXfXfXfXfXfX",
"fXfXfXfXfXfXfXfXfXfXfXfXfXfXfXfXfXfXfXfXfXfXfXfXfXfXfXfXfXfXfXfXfXfXfXfXfXfXfXfXfXfXfXfXfXfXfXfXfXfXfXfXfXfXfXfXfXfXfXfXfXfXfXfX",
"fXfXfXfXfXfXfXfXfXfXfXfXfXfXfXfXfXfXfXfXfXfXfXfXfXfXfXfXfXfXfXfXfXfXfXfXfXfXY.Y.fXfXfXfXfXfXfXfXfXfXfXfXfXfXfXfXfXfXfXfXfXfXfXfX",
"fXfXfXfXfXfXfXfXfXfXfXfXfXfXfXfXfXfXfXfXfXfXfXfXfXfXfXfXfXfXfXfXfXfXfXfXfXfXfXfXfXfXfXfXfXfXfX>XfXfXfXfXfXfXfXfXfXfXfXfXfXfXfXfX",
"fXfXfXfXfXfXfXfXfXfXfXfXfXfXfXfXfXfXfXfXfXfXfXfXfXfXfXfXfXfXfXfXfXfXfXfXfXfXfXfX:XfXfXfXfXfXfXfXfXfXfXfXfXfXfXfXfXfXfXfXfXfXfXfX",
"fXfXfXfXfXfXfXfXfXfXfXfXfXfXfXfXfXfXfXfXfXfXfXfXfXfXfXfXfXm.M.b.fXfXfXfXfXfXfXfXfXfXfXE.fXfXfXfXfXfXfXfXfXfXfXfXfXfXfXfXfXfXfXfX",
"fXfXfXfXfXfXfXfXfXfXfXfXfXfXfXfXfXfXfXfXb.Z.D.}.OXOXOXOXOXOXOXOXOXOXOXOXOXL.S.Z.n.fXfXfXfXfXfXfXfXfXfXfXfXfXfXfXfXfXfXfXfXfXfXfX",
"fXfXfXfXfXfXfXfXfXfXfXfXfXfXfXfXfXm.K.OXOXOXOXOXOXOXOXOXOXOXOXOXOXOXOXOXL.' & @ % = z.x.fXfXfXfXfXfXfXfXfXfXfXfXfXfXfXfXfXfXfXfX",
"fXfXfXfXfXfXfXfXfXfXfXfXfXfXfXfX|.OXOXOXOXOXOXOXOXOXOXOXOXOXOXOXOXOXOXB.o           O A.K.fXfXfXfXfXfXfXfXfXfXfXfXfXfXfXfXfXfXfX",
"fXfXfXfXfXfXfXfXfXfXfXfXfXfXfXG.OXOXOXOXOXOXOXOXOXOXOXOXOXOXOXOXOXOXOX*               % OX .fXfXfXfXfXfXfXfXfXfXfXfXfXfXfXfXfXfX",
"fXfXfXfXfXfXfXfXfXfXfXfXfXfXfX` OXOXOXOXOXOXOXOXOXOXOXOXOXOXOXOXOXOXOXI.# X       . + D.}.J fXfXfXfXfXfXfXfXfXfXfXfXfXfXfXfXfXfX",
"fXfXfXfXfXfXfXfXfXfXfXfXfXfXfXi K ..oXOXOXOXOXOXOXOXOXOXOXOXOXOXOXOXOXOXOXoXm.- b.|.[.9.G i fXfXfXfXfXfXfXfXfXfXfXfXfXfXfXfXfXfX",
"fXfXfXfXfXfXfXfXfXfXfXfXfXfXfXa h h 8 @.| H.OXOXOXOXOXOXOXOXOXOXOXOXOXOXOXOX.XV.[ O.y h h r fXfXfXfXfXfXfXfXfXfXfXfXfXfXfXfXfXfX",
"fXfXfXfXfXfXfXfXfXfXfXfXfXfXfXa h h h h h a 7 L +.@.&.8.[ } X.{ [ 7.%.$.o.H t h h h h h h r fXfXfXfXfXfXfXfXfXfXfXfXfXfXfXfXfXfX",
"fXfXfXfXfXfXfXfXfXfXfXfXfXfXfXa h h h h h h h h h h h h h h h h h h h h h h h h h h h h h r fXfXfXfXfXfXfXfXfXfXfXfXfXfXfXfXfXfX",
"fXfXfXfXfXfXfXfXfXfXfXfXfXfXfXa h h h h h h h h h h h h h h h h h h h h h h h h h h h h h r fXfXfXfXfXfXfXfXfXfXfXfXfXfXfXfXfXfX",
"fXfXfXfXfXfXfXfXfXfXfXfXfXfXfXa h h h h h h h h h h h h h h h h h h h h h h h h h h h h h r fXfXfXfXfXfXfXfXfXfXfXfXfXfXfXfXfXfX",
"fXfXfXfXfXfXfXfXfXfXfXfXfXfXfXa h h h h h h h h h h h h h h h h h h h h h h h h h h h h h r fXfXfXfXfXfXfXfXfXfXfXfXfXfXfXfXfXfX",
"fXfXfXfXfXfXfXfXfXfXfXfXfXfXfXa h h h h h h h h h h h h h h h h h h h h h h h h h h h h h r fXfXfXfXfXfXfXfXfXfXfXfXfXfXfXfXfXfX",
"fXfXfXfXfXfXfXfXfXfXfXfXfXfXfXa h h h h h h h h h h h h h h h h h h h h h h h h h h h h h r fXfXfXfXfXfXfXfXfXfXfXfXfXfXfXfXfXfX",
"fXfXfXfXfXfXfXfXfXfXfXfXfXfXfXa h h h h h h h h h h h h h h h h h h h h h h h h h h h h h r fXfXfXfXfXfXfXfXfXfXfXfXfXfXfXfXfXfX",
"fXfXfXfXfXfXfXfXfXfXfXfXfXfXfXa h h h h h h h h h h h h h h h h h h h h h h h h h h h h h r fXfXfXfXfXfXfXfXfXfXfXfXfXfXfXfXfXfX",
"fXfXfXfXfXfXfXfXfXfXfXfXfXfXfXa h h h h h h h h h h h h h h h h h h h h h h h h h h h @Xu.r fXfXfXfXfXfXfXfXfXfXfXfXfXfXfXfXfXfX",
"fXfXfXfXfXfXfXfXfXfXfXfXfXfXfXa h h h h h h h h h h h h h h h h h h h h h h h h h h b dX) r fXfXfXfXfXfXfXfXfXfXfXfXfXfXfXfXfXfX",
"fXfXfXfXfXfXfXfXfXfXfXfXfXfXfXa h h h h h h h h h h h h h h h h h h h h h h h h h h Q wXh r fXfXfXfXfXfXfXfXfXfXfXfXfXfXfXfXfXfX",
"fXfXfXfXfXfXfXfXfXfXfXfXfXfXfXa h h h h h h h h h h h h h h h h h h h h h h h h b h 4.!.h r fXfXfXfXfXfXfXfXfXfXfXfXfXfXfXfXfXfX",
"fXfXfXfXfXfXfXfXfXfXfXfXfXfXfXa h h h h h h h h h h h h h h h h R 4.Y h h h ( /.#Xh a.Y h r fXfXfXfXfXfXfXfXfXfXfXfXfXfXfXfXfXfX",
"fXfXfXfXfXfXfXfXfXfXfXfXfXfXfXa h h h h h h h h h h h h h B h.#Xe.yXqXh c @Xe.dXr.h Q h h r fXfXfXfXfXfXfXfXfXfXfXfXfXfXfXfXfXfX",
"fXfXfXfXfXfXfXfXfXfXfXfXfXfXfXa h h h h h h h h h h h h I 4XdXA h -XiXh &Xh.( dX4.Q qXz h r fXfXfXfXfXfXfXfXfXfXfXfXfXfXfXfXfXfX",
"fXfXfXfXfXfXfXfXfXfXfXfXfXfXfXa h h h h h h h h h h h h h @X4Xh h tX1XB dX( W.yXa.( >.h h r fXfXfXfXfXfXfXfXfXfXfXfXfXfXfXfXfXfX",
"fXfXfXfXfXfXfXfXfXfXfXfXfXfXfXa h h h h h h h h h h h h h qX'.h Q dXa.e.dXu././.h h h h h r fXfXfXfXfXfXfXfXfXfXfXfXfXfXfXfXfXfX",
"fXfXfXfXfXfXfXfXfXfXfXfXfXfXfXa h h h b I r._ h h M I h F dX4.h p.qXc F &X4.h h h h h h h r fXfXfXfXfXfXfXfXfXfXfXfXfXfXfXfXfXfX",
"fXfXfXfXfXfXfXfXfXfXfXfXfXfXfXa h h *.p.;.wXA h <.a.dX;.6.dXB *.7XI h h h h h h h h h h h r fXfXfXfXfXfXfXfXfXfXfXfXfXfXfXfXfXfX",
"fXfXfXfXfXfXfXfXfXfXfXfXfXfXfXa h ) ).h h 6.h u.@XA dX) '.tXu.'.A h h h h h h h h h h h h r fXfXfXfXfXfXfXfXfXfXfXfXfXfXfXfXfXfX",
"fXfXfXfXfXfXfXfXfXfXfXfXfXfXfXa h '.6X).!.) z rX>.<.7XY 6X!.P h h h h h h h h h h h h h h r fXfXfXfXfXfXfXfXfXfXfXfXfXfXfXfXfXfX",
"fXfXfXfXfXfXfXfXfXfXfXfXfXfXfXa h ].dXdXdX<X*.dXA %X*.Q c h h h h h h h h h h h h h h h h r fXfXfXfXfXfXfXfXfXfXfXfXfXfXfXfXfXfX",
"fXfXfXfXfXfXfXfXfXfXfXfXfXfXfXa h b Q ;.&XW.B 7Xk.F h h h h h h h h h h h h h h h h h h h r fXfXfXfXfXfXfXfXfXfXfXfXfXfXfXfXfXfX",
"fXfXfXfXfXfXfXfXfXfXfXfXfXfXfXa >.;.h h ].F h h h h h h h h h h h h h h h h h h h h h h h r fXfXfXfXfXfXfXfXfXfXfXfXfXfXfXfXfXfX",
"fXfXfXfXfXfXfXfXfXfXfXfXfXfXfXa W.4Xk.a.B h h h h h h h h h h h h h h h h h h h h h h h h r fXfXfXfXfXfXfXfXfXfXfXfXfXfXfXfXfXfX",
"fXfXfXfXfXfXfXfXfXfXfXfXfXfXfXa k.c h h h h h h h h h h h h h h h h h h h h h h h h h h h r fXfXfXfXfXfXfXfXfXfXfXfXfXfXfXfXfXfX",
"fXfXfXfXfXfXfXfXfXfXfXfXfXfXfXp h h h h h h h h h h h h h h h h h h h h h h h h h h h h h r fXfXfXfXfXfXfXfXfXfXfXfXfXfXfXfXfXfX",
"fXfXfXfXfXfXfXfXfXfXfXfXfXfXfXa h h h h h h h h h h h h h h h h h h h h h h h h h h h h h r fXfXfXfXfXfXfXfXfXfXfXfXfXfXfXfXfXfX",
"fXfXfXfXfXfXfXfXfXfXfXfXfXfXfXa h h h h h h h h h h h h h h h h h h h h h h h h h h h h h r fXfXfXfXfXfXfXfXfXfXfXfXfXfXfXfXfXfX",
"fXfXfXfXfXfXfXfXfXfXfXfXfXfXfXa h h h h h h h h h h h h h h h h h h h h h h h h h h h h h r fXfXfXfXfXfXfXfXfXfXfXfXfXfXfXfXfXfX",
"fXfXfXfXfXfXfXfXfXfXfXfXfXfXfXa h h h h h h h h h h h h h h h h h h h h h h h h h h h h h r fXfXfXfXfXfXfXfXfXfXfXfXfXfXfXfXfXfX",
"fXfXfXfXfXfXfXfXfXfXfXfXfXfXfXa h h h h h h h h h h h h h h h h h h h h h h h h h h h h h r fXfXfXfXfXfXfXfXfXfXfXfXfXfXfXfXfXfX",
"fXfXfXfXfXfXfXfXfXfXfXfXfXfXfXa h h h h h h h h h h h h h h h h h h h h h h h h h h h h h r fXfXfXfXfXfXfXfXfXfXfXfXfXfXfXfXfXfX",
"fXfXfXfXfXfXfXfXfXfXfXfXfXfXfXa h h h h h h h h h h h h h h h h h h h h h h h h h h h h h r fXfXfXfXfXfXfXfXfXfXfXfXfXfXfXfXfXfX",
"fXfXfXfXfXfXfXfXfXfXfXfXfXfXfXa h h h h h h h h h h h h h h h h h h h h h h h h h h h h h r fXfXfXfXfXfXfXfXfXfXfXfXfXfXfXfXfXfX",
"fXfXfXfXfXfXfXfXfXfXfXfXfXfXfXa h h h h h h h h h h h h h h h h h h h h h h h h h h h h h r fXfXfXfXfXfXfXfXfXfXfXfXfXfXfXfXfXfX",
"fXfXfXfXfXfXfXfXfXfXfXfXfXfXfXp h h h h h h h h h h h h h h h h h h h h h h h h h h h h h r fXfXfXfXfXfXfXfXfXfXfXfXfXfXfXfXfXfX",
"fXfXfXfXfXfXfXfXfXfXfXfXfXfXfXi h h h h h h h h h h h h h h h h h h h h h h h h h h h h h q fXfXfXfXfXfXfXfXfXfXfXfXfXfXfXfXfXfX",
"fXfXfXfXfXfXfXfXfXfXfXfXfXfXfX, h h h h h h h h h h h h h h h h h h h h h h h h h h h h h 1 fXfXfXfXfXfXfXfXfXfXfXfXfXfXfXfXfXfX",
"fXfXfXfXfXfXfXfXfXfXfXfXfXfXfXfX, a h h h h h h h h h h h h h h h h h h h h h h h h h h 1 fXfXfXfXfXfXfXfXfXfXfXfXfXfXfXfXfXfXfX",
"fXfXfXfXfXfXfXfXfXfXfXfXfXfXfXfXfXfX, r h h h h h h h h h h h h h h h h h h h h h r , fXfXfXfXfXfXfXfXfXfXfXfXfXfXfXfXfXfXfXfXfX",
"fXfXfXfXfXfXfXfXfXfXfXfXfXfXfXfXfXfXfXfXfXfX: 1 4 q i h h h h h h h i q 6 4 : fXfXfXfXfXfXfXfXfXfXfXfXfXfXfXfXfXfXfXfXfXfXfXfXfX",
"fXfXfXfXfXfXfXfXfXfXfXfXfXfXfXfXfXfXfXfXfXfXfXfXfXfXfXfXfXfXfXfXfXfXfXfXfXfXfXfXfXfXfXfXfXfXfXfXfXfXfXfXfXfXfXfXfXfXfXfXfXfXfXfX"
};
