/* XPM */
static const char *uparrow_xpm[] = {
/* columns rows colors chars-per-pixel */
"20 10 2 1",
"  c #000000",
". c None",
/* pixels */
"....................",
"....................",
".........  .........",
"........ .. ........",
"....... .... .......",
"...... ...... ......",
"..... .  ..  . .....",
"....  ........  ....",
"....................",
"...................."
};

 
